<svg width="690" height="690" viewBox="0 0 690 690" fill="none" xmlns="http://www.w3.org/2000/svg">
<circle cx="345" cy="345" r="345" fill="#FF5A1E"/>
<path d="M203.773 541.854C200.999 541.854 198.224 540.305 195.603 537.517C191.133 532.561 151.824 486.41 153.058 423.378C153.52 397.824 161.382 360.036 196.22 324.416C216.105 304.128 225.971 283.22 226.433 260.455C227.204 218.794 195.912 182.865 195.603 182.4C188.358 174.192 187.742 158.55 194.37 149.103C196.991 145.231 200.382 143.218 203.773 143.218C207.319 143.218 210.093 145.541 211.789 147.399C216.259 152.51 255.568 198.506 254.489 261.539C254.026 287.092 246.165 324.881 211.327 360.501C191.595 380.789 181.73 401.541 181.113 423.997C180.342 456.985 200.844 489.662 211.789 502.207C219.188 510.57 219.805 526.212 213.176 535.659C210.556 539.531 207.165 541.544 203.773 541.544V541.854Z" fill="white"/>
<path d="M203.773 138C209.212 138 213.137 141.282 215.21 143.45L215.601 143.868L215.637 143.908L215.673 143.949C220.298 149.237 260.78 196.523 259.666 261.629V261.634C259.185 288.22 250.976 327.386 215.023 364.152L215.024 364.153C195.964 383.751 186.866 403.307 186.288 424.119L186.289 424.12C185.929 439.539 190.554 455.136 196.753 468.568C202.946 481.987 210.538 492.871 215.677 498.761C220.341 504.048 222.629 511.29 222.916 518.312C223.202 525.328 221.518 532.764 217.453 538.598L217.454 538.599C215.237 541.875 212.321 544.442 208.951 545.768V547.071H203.773C199.008 547.071 194.967 544.428 191.844 541.106L191.808 541.067L191.772 541.027C187.076 535.821 146.607 488.382 147.881 423.275C148.364 396.687 156.574 357.519 192.532 320.754L192.536 320.75L193.429 319.831C212.017 300.547 220.834 281.135 221.257 260.348C221.616 240.803 214.434 222.342 206.885 208.491C199.956 195.778 193.446 188.028 191.698 185.824C187.109 180.6 184.873 173.393 184.61 166.414C184.353 159.617 185.938 152.4 189.765 146.643L190.142 146.091C193.43 141.271 198.232 138 203.773 138ZM203.773 143.218C200.382 143.218 196.991 145.231 194.37 149.103C187.742 158.55 188.358 174.192 195.603 182.4C195.912 182.865 227.204 218.794 226.433 260.455C225.971 283.22 216.105 304.128 196.22 324.416L194.607 326.088C161.138 361.214 153.513 398.224 153.058 423.378C151.824 486.41 191.133 532.561 195.603 537.517C198.142 540.218 200.825 541.756 203.513 541.85L203.773 541.854V541.544C207.165 541.544 210.556 539.531 213.176 535.659C219.805 526.212 219.188 510.57 211.789 502.207C200.844 489.662 180.342 456.985 181.113 423.997C181.73 401.541 191.595 380.789 211.327 360.501C245.62 325.437 253.775 288.272 254.462 262.745L254.489 261.539C255.534 200.476 218.677 155.401 212.308 147.997L211.789 147.399C210.146 145.599 207.491 143.363 204.104 143.225L203.773 143.218Z" fill="white"/>
<path d="M342.533 541.854C339.759 541.854 336.984 540.305 334.363 537.517C329.893 532.561 290.585 486.41 291.818 423.378C292.28 397.824 300.142 360.036 334.98 324.416C354.865 304.128 364.731 283.22 365.193 260.455C365.964 218.794 334.672 182.865 334.363 182.4C327.118 174.192 326.502 158.55 333.13 149.103C335.751 145.231 339.142 143.218 342.533 143.218C346.079 143.218 348.853 145.541 350.549 147.399C355.02 152.51 394.328 198.506 393.249 261.539C392.786 287.092 384.925 324.881 350.087 360.501C330.355 380.789 320.49 401.541 319.873 423.997C319.102 456.985 339.604 489.662 350.549 502.207C357.948 510.57 358.565 526.212 351.936 535.659C349.316 539.531 345.925 541.544 342.533 541.544V541.854Z" fill="white"/>
<path d="M342.533 138C347.972 138 351.897 141.282 353.97 143.45L354.361 143.868L354.397 143.908L354.433 143.949C359.058 149.237 399.541 196.523 398.426 261.629V261.634C397.945 288.22 389.736 327.386 353.783 364.152L353.784 364.153C334.724 383.751 325.626 403.307 325.048 424.119L325.049 424.12C324.689 439.539 329.314 455.136 335.513 468.568C341.706 481.987 349.299 492.871 354.438 498.761C359.101 504.048 361.389 511.29 361.676 518.312C361.962 525.328 360.278 532.764 356.213 538.598L356.214 538.599C353.997 541.875 351.081 544.442 347.711 545.768V547.071H342.533C337.768 547.071 333.727 544.428 330.604 541.106L330.568 541.067L330.532 541.027C325.836 535.821 285.367 488.382 286.641 423.275C287.124 396.687 295.334 357.519 331.292 320.754L331.296 320.75L332.189 319.831C350.777 300.547 359.594 281.135 360.017 260.348C360.376 240.803 353.194 222.342 345.645 208.491C338.716 195.778 332.206 188.028 330.458 185.824C325.87 180.6 323.634 173.393 323.37 166.414C323.113 159.617 324.698 152.4 328.525 146.643L328.902 146.091C332.19 141.271 336.992 138 342.533 138ZM342.533 143.218C339.142 143.218 335.751 145.231 333.13 149.103C326.502 158.55 327.118 174.192 334.363 182.4C334.672 182.865 365.964 218.794 365.193 260.455C364.731 283.22 354.865 304.128 334.98 324.416L333.367 326.088C299.898 361.214 292.273 398.224 291.818 423.378C290.585 486.41 329.893 532.561 334.363 537.517C336.902 540.218 339.585 541.756 342.273 541.85L342.533 541.854V541.544C345.925 541.544 349.316 539.531 351.936 535.659C358.565 526.212 357.948 510.57 350.549 502.207C339.604 489.662 319.102 456.985 319.873 423.997C320.49 401.541 330.355 380.789 350.087 360.501C384.38 325.437 392.535 288.272 393.222 262.745L393.249 261.539C394.294 200.476 357.437 155.401 351.068 147.997L350.549 147.399C348.907 145.599 346.251 143.363 342.864 143.225L342.533 143.218Z" fill="white"/>
<path d="M481.293 541.854C478.519 541.854 475.744 540.305 473.123 537.517C468.653 532.561 429.345 486.41 430.578 423.378C431.04 397.824 438.902 360.036 473.74 324.416C493.625 304.128 503.491 283.22 503.954 260.455C504.724 218.794 473.432 182.865 473.123 182.4C465.878 174.192 465.262 158.55 471.89 149.103C474.511 145.231 477.902 143.218 481.293 143.218C484.839 143.218 487.614 145.541 489.309 147.399C493.78 152.51 533.088 198.506 532.009 261.539C531.546 287.092 523.685 324.881 488.847 360.501C469.116 380.789 459.25 401.541 458.633 423.997C457.863 456.985 478.365 489.662 489.309 502.207C496.708 510.57 497.325 526.212 490.697 535.659C488.076 539.531 484.685 541.544 481.293 541.544V541.854Z" fill="white"/>
<path d="M481.293 138C486.733 138 490.657 141.282 492.73 143.45L493.121 143.868L493.157 143.908L493.194 143.949C497.818 149.237 538.301 196.523 537.186 261.629V261.634C536.705 288.22 528.496 327.386 492.543 364.152L492.544 364.153C473.484 383.751 464.386 403.307 463.809 424.119L463.81 424.12C463.449 439.539 468.074 455.136 474.273 468.568C480.466 481.987 488.059 492.871 493.198 498.761C497.861 504.048 500.15 511.29 500.436 518.312C500.723 525.328 499.038 532.764 494.973 538.598L494.974 538.599C492.757 541.875 489.841 544.442 486.471 545.768V547.071H481.293C476.528 547.071 472.487 544.428 469.364 541.106L469.328 541.067L469.293 541.027C464.597 535.821 424.127 488.382 425.401 423.275C425.884 396.687 434.095 357.519 470.052 320.754L470.056 320.75L470.949 319.831C489.537 300.547 498.354 281.135 498.777 260.348C499.136 240.803 491.954 222.342 484.405 208.491C477.476 195.778 470.966 188.028 469.218 185.824C464.63 180.6 462.394 173.393 462.13 166.414C461.873 159.617 463.459 152.4 467.285 146.643L467.662 146.091C470.95 141.271 475.752 138 481.293 138ZM481.293 143.218C477.902 143.218 474.511 145.231 471.89 149.103C465.262 158.55 465.878 174.192 473.123 182.4C473.432 182.865 504.724 218.794 503.954 260.455C503.491 283.22 493.625 304.128 473.74 324.416L472.127 326.088C438.659 361.214 431.033 398.224 430.578 423.378C429.345 486.41 468.653 532.561 473.123 537.517C475.662 540.218 478.345 541.756 481.033 541.85L481.293 541.854V541.544C484.685 541.544 488.076 539.531 490.697 535.659C497.325 526.212 496.708 510.57 489.309 502.207C478.365 489.662 457.863 456.985 458.633 423.997C459.25 401.541 469.116 380.789 488.847 360.501C523.14 325.437 531.295 288.272 531.982 262.745L532.009 261.539C533.054 200.476 496.197 155.401 489.828 147.997L489.309 147.399C487.667 145.599 485.011 143.363 481.624 143.225L481.293 143.218Z" fill="white"/>
</svg>
