<svg width="643" height="643" viewBox="0 0 643 643" fill="none" xmlns="http://www.w3.org/2000/svg">
<circle cx="321.868" cy="321.867" r="321.133" fill="#A5E2EA"/>
<path fill-rule="evenodd" clip-rule="evenodd" d="M257.906 111.12C253.538 111.315 249.291 113.373 246.47 117.099C241.45 123.738 242.815 133.172 249.519 138.144L304.12 178.686V295.403L202.061 237.045L193.917 169.914C192.931 161.682 185.377 155.809 177.066 156.8C168.754 157.792 162.824 165.287 163.825 173.519L171.53 236.894L112.257 261.98C104.552 265.24 100.958 274.072 104.249 281.688C107.555 289.319 116.458 292.849 124.163 289.589L186.925 263.032L288.984 321.39L186.925 379.748L124.163 353.19C116.458 349.93 107.555 353.46 104.249 361.091C100.958 368.707 104.552 377.54 112.257 380.799L171.53 405.885L163.825 469.26C162.824 477.492 168.754 484.988 177.066 485.979C185.377 486.971 192.931 481.097 193.917 472.865L202.061 405.735L304.12 347.377V464.093L249.519 504.636C242.815 509.608 241.45 519.041 246.47 525.681C251.491 532.32 261.016 533.672 267.719 528.7L319.287 490.38L370.855 528.7C377.559 533.672 387.084 532.32 392.104 525.681C397.125 519.041 395.76 509.608 389.056 504.636L334.454 464.093V347.377L436.513 405.735L444.658 472.865C445.644 481.097 453.197 486.971 461.509 485.979C469.82 484.988 475.751 477.492 474.75 469.26L467.045 405.885L526.318 380.799C534.022 377.54 537.617 368.707 534.326 361.091C531.019 353.46 522.116 349.93 514.411 353.19L451.65 379.748L349.591 321.39L451.65 263.032L514.411 289.589C522.116 292.849 531.019 289.319 534.326 281.688C537.617 274.072 534.022 265.24 526.318 261.98L467.045 236.894L474.78 173.519C475.781 165.287 469.82 157.792 461.509 156.8C453.197 155.809 445.644 161.682 444.658 169.914L436.513 237.045L334.454 295.403V178.686L389.056 138.144C395.76 133.172 397.125 123.738 392.104 117.099C387.084 110.459 377.559 109.107 370.855 114.079L319.287 152.399L267.719 114.079C264.777 111.901 261.304 110.97 257.906 111.12Z" fill="white"/>
<path d="M370.554 112.979C377.708 107.948 387.667 109.457 392.959 116.456C398.338 123.569 396.873 133.675 389.694 138.999L389.695 139L335.525 179.222V293.559L435.514 236.385L443.595 169.785C444.653 160.961 452.746 154.68 461.636 155.74C470.388 156.784 476.715 164.572 475.887 173.234L475.842 173.648L468.205 236.225L526.736 260.998L527.119 261.166C535.098 264.781 538.783 274.071 535.309 282.11L535.308 282.111C531.822 290.157 522.532 293.941 514.38 290.731L513.994 290.572L451.722 264.22L351.742 321.39L451.722 378.558L513.994 352.207L514.38 352.05C522.403 348.891 531.527 352.503 535.138 360.288L535.308 360.668L535.309 360.669L535.469 361.053C538.665 369.002 534.972 378.056 527.119 381.614L526.736 381.782L468.204 406.553L475.812 469.131L475.857 469.545C476.686 478.204 470.391 485.995 461.636 487.039C452.746 488.1 444.653 481.818 443.595 472.994L435.514 406.394L335.525 349.219V463.556L389.695 503.779C396.875 509.104 398.338 519.21 392.959 526.324C387.583 533.434 377.391 534.877 370.217 529.557L370.216 529.556L319.287 491.712L268.359 529.556L268.358 529.557C261.184 534.877 250.991 533.434 245.615 526.324C240.237 519.21 241.7 509.104 248.879 503.779L303.05 463.556V349.219L203.059 406.394L194.98 472.994C193.922 481.818 185.829 488.1 176.939 487.039C168.045 485.978 161.69 477.955 162.763 469.131L170.37 406.553L111.839 381.782C103.595 378.294 99.7368 368.836 103.266 360.669L103.267 360.668L103.437 360.288C107.106 352.378 116.468 348.775 124.581 352.207L186.852 378.558L286.832 321.39L186.852 264.22L124.581 290.572C116.468 294.005 107.106 290.401 103.437 282.492L103.267 282.111L103.266 282.11C99.7368 273.944 103.595 264.486 111.839 260.998L170.37 236.225L162.763 173.648C161.69 164.825 168.045 156.801 176.939 155.74C185.829 154.68 193.922 160.961 194.98 169.785L203.059 236.385L303.05 293.559V179.222L248.879 139C241.701 133.676 240.237 123.569 245.615 116.456L245.904 116.087C248.923 112.329 253.333 110.256 257.858 110.053L258.54 110.037C261.834 110.023 265.171 110.967 268.06 113.007L268.358 113.223L268.359 113.224L319.287 151.067L370.216 113.224L370.217 113.223L370.554 112.979ZM392.104 117.099C387.084 110.459 377.559 109.107 370.855 114.079L319.287 152.399L267.719 114.079C264.777 111.901 261.304 110.97 257.906 111.12C253.538 111.315 249.291 113.373 246.47 117.099C241.45 123.738 242.815 133.172 249.519 138.144L304.12 178.686V295.403L202.061 237.045L193.917 169.914C192.931 161.682 185.377 155.809 177.066 156.8C168.754 157.792 162.824 165.287 163.825 173.519L171.53 236.894L112.257 261.98C104.552 265.24 100.958 274.072 104.249 281.688C107.555 289.319 116.458 292.849 124.163 289.589L186.925 263.032L288.984 321.39L186.925 379.748L124.163 353.19C116.458 349.93 107.555 353.46 104.249 361.091C100.958 368.707 104.552 377.54 112.257 380.799L171.53 405.885L163.825 469.26C162.824 477.492 168.754 484.988 177.066 485.979C185.377 486.971 192.931 481.097 193.917 472.865L202.061 405.735L304.12 347.377V464.093L249.519 504.636C242.815 509.608 241.45 519.041 246.47 525.681C251.491 532.32 261.016 533.672 267.719 528.7L319.287 490.38L370.855 528.7C377.559 533.672 387.084 532.32 392.104 525.681C397.125 519.041 395.76 509.608 389.056 504.636L334.454 464.093V347.377L436.513 405.735L444.658 472.865C445.644 481.097 453.197 486.971 461.509 485.979C469.82 484.988 475.751 477.492 474.75 469.26L467.045 405.885L526.318 380.799C534.022 377.54 537.617 368.707 534.326 361.091C531.019 353.46 522.116 349.93 514.411 353.19L451.65 379.748L349.591 321.39L451.65 263.032L514.411 289.589C522.116 292.849 531.019 289.319 534.326 281.688C537.617 274.072 534.022 265.24 526.318 261.98L467.045 236.894L474.78 173.519C475.781 165.287 469.82 157.792 461.509 156.8C453.197 155.809 445.644 161.682 444.658 169.914L436.513 237.045L334.454 295.403V178.686L389.056 138.144C395.76 133.172 397.125 123.738 392.104 117.099Z" fill="white"/>
</svg>
