<svg width="694" height="694" viewBox="0 0 694 694" fill="none" xmlns="http://www.w3.org/2000/svg">
<circle cx="347" cy="347" r="347" fill="#3232FF"/>
<path d="M347.096 88.7285C351.546 88.7285 356.037 90.5591 358.765 94.2666L359.022 94.6318L359.024 94.6338C362.331 99.5311 402.866 159.654 442.576 229.985C462.432 265.152 482.086 302.879 496.777 337.537C511.461 372.177 521.215 403.816 521.213 426.779C521.213 522.753 443.083 600.883 347.104 600.883C251.141 600.883 173 522.758 173 426.779C173 403.816 182.756 372.179 197.439 337.541C212.131 302.885 231.786 265.16 251.641 229.995C291.352 159.664 331.888 99.5396 335.194 94.6338V94.6328C337.873 90.6796 342.502 88.7286 347.096 88.7285ZM347.108 128.692C322.445 166.371 286.238 224.908 256.132 281.972C240.993 310.666 227.402 338.979 217.596 364.074C207.784 389.185 201.785 411.021 201.785 426.779C201.785 506.957 266.976 572.108 347.109 572.108C427.233 572.108 492.443 506.957 492.443 426.779C492.443 411.007 486.445 389.165 476.634 364.052C466.828 338.954 453.236 310.642 438.097 281.951C407.99 224.894 371.779 166.371 347.108 128.692ZM257.826 397.522C265.741 397.523 272.211 403.987 272.211 411.912C272.211 461.44 312.482 501.686 361.985 501.687L362.355 501.691C370.1 501.883 376.365 508.217 376.365 516.072C376.365 524.022 369.9 530.462 361.98 530.462C296.592 530.462 243.437 477.285 243.437 411.912C243.437 403.987 249.911 397.522 257.826 397.522Z" fill="white" stroke="white"/>
</svg>
